<mxfile host="app.diagrams.net" modified="2023-11-08T01:50:41.345Z" agent="Mozilla/5.0 (Linux; Android 10; K) AppleWebKit/537.36 (KHTML, like Gecko) Chrome/119.0.0.0 Mobile Safari/537.36" version="22.0.8" etag="bTM9zUfN000VBJzj8mRh" type="github">
  <diagram name="Page-1" id="ONvt11-VQ1QAQwy8qZmk">
    <mxGraphModel>
      <root>
        <mxCell id="0" />
        <mxCell id="1" parent="0" />
      </root>
    </mxGraphModel>
  </diagram>
</mxfile>
